<?xml version="1.0" encoding="utf-8"?>
<!-- Generator: Adobe Illustrator 23.0.3, SVG Export Plug-In . SVG Version: 6.00 Build 0)  -->
<svg version="1.1" id="Capa_1" xmlns="http://www.w3.org/2000/svg" xmlns:xlink="http://www.w3.org/1999/xlink" x="0px" y="0px"
	 viewBox="0 0 1200 1200" enable-background="new 0 0 1200 1200" xml:space="preserve">
<g>
	<path fill="#BD8C11" d="M1102.95,766.249c-85.851-78.278-109.419-132.146-109.419-132.146l-5.048-162.445
		c-93.427-196.955-241.566-324.89-346.774-347.616c-105.212-22.726-149.822-3.366-149.822-3.366
		c-79.12,8.415-102.686,24.408-102.686,24.408c-58.92,11.784-84.168,48.818-84.168,48.818
		c-10.102,6.734-37.877,30.301-37.877,30.301c-77.434,40.4-98.478,134.67-98.478,134.67
		c-35.351,69.018-52.183,140.703-52.183,140.703c-29.46,9.4-31.142,35.21-31.142,35.21S50,566.769,50,623.162
		c10.102,170.02,284.493,254.19,284.493,254.19c17.675,41.243,63.967,34.509,63.967,34.509s211.263,110.262,315.632,156.554
		c104.369,46.292,205.372-1.684,321.526-58.077C1151.768,953.945,1188.804,844.525,1102.95,766.249z"/>
	<path fill="#FFBD17" d="M811.727,585.285c30.303,95.391,35.913,227.256-20.2,303.849c-18.323,0.833-36.224,1.231-53.802,1.231
		c-355.481,0-558.642-163.65-603.553-214.178c-47.135-53.025-17.675-176.611-17.675-176.611s14.704-62.604,45.48-127.131
		c0.112-0.172,0.275-0.517,0.488-1.024c2.005-4.182,4.074-8.37,6.214-12.548c0,0,0.045-0.194,0.112-0.475
		c18.551-33.564,78.082-115.409,217.579-115.404c0.75,0,1.514,0.002,2.269,0.007C565.956,244.123,781.428,489.895,811.727,585.285z
		 M993.531,634.103l-4.209,185.172c-24.408,47.133-140.559,79.96-140.559,79.96l-5.612-325.171c0,0-85.292-163.848-278.318-286.174
		c-73.033-46.283-139.616-61.394-195.177-61.394c-85.492,0-144.853,35.81-161.211,48.951c14.455-19.377,33.604-38.144,58.712-51.244
		c0,0,27.774-23.567,37.877-30.301c0,0,53.844-32.829,136.267-32.829c31.874,0,68.016,4.907,106.981,18.521
		c139.719,48.818,260.081,165.811,338.354,356.033c0,0,15.154-5.892,15.993-14.308c0,0-108.906-258.398-312.851-340.042
		c-69.657-27.885-122.996-37.705-163.694-37.705c-40.249,0-68.125,9.598-87.247,20.819c12.805-7.759,29.454-15.123,50.364-19.305
		c0,0,19.697-13.346,83.43-22.07c-0.228,0.044-0.456,0.089-0.683,0.133c0.19-0.036,0.504-0.094,0.897-0.162
		c3.199-0.437,6.509-0.861,9.932-1.273c5.24-0.496,12.215-0.925,20.734-0.925c77.481,0,281.116,35.481,438.68,378.646
		c0,0,1.354,0.318,3.205,0.318c4.164,0,10.843-1.612,10.259-12.102c0,0-79.961-200.321-253.347-309.74
		c-78.88-42.973-131.025-59.876-181.041-59.876c-8.751,0-17.431,0.518-26.185,1.503c11.865-3.797,57.489-14.748,146.626,4.506
		c105.208,22.725,253.346,150.661,346.774,347.616L993.531,634.103z"/>
</g>
</svg>
