<?xml version="1.0" encoding="utf-8"?>
<!-- Generator: Adobe Illustrator 23.0.3, SVG Export Plug-In . SVG Version: 6.00 Build 0)  -->
<svg version="1.1" id="Capa_1" xmlns="http://www.w3.org/2000/svg" xmlns:xlink="http://www.w3.org/1999/xlink" x="0px" y="0px"
	 viewBox="0 0 1200 1200" enable-background="new 0 0 1200 1200" xml:space="preserve">
<g>
	<path fill="#FFDFD2" d="M744.761,960.144c-6.324,9.788-15.251,18.809-27.248,26.783c-0.07,0.046-0.116,0.093-0.186,0.116
		c-64.377,42.616-156.304,30.991-224.076,12.415c-10.323,18.088-20.692,32.433-29.852,41.081
		c-7.277,6.905-30.108,16.344-33.479,2.185c-9.207-38.733-23.017-125.197-33.874-165.093c-0.34-1.251-0.772-2.344-1.243-3.357
		c-4.495-9.655-14.337-8.556-17.914,2.218c-13.485,40.64-34.409,132.683-52.311,168.045c-2.836,5.557-11.462,6.115-19.692,2.767
		c-6.742-2.72-13.229-8.067-16.042-15.368c-25.9-67.26-62.331-239.141,9.532-462.892c0,0.023,0,0.047,0.023,0.07
		c0.307,2.327,6.956,50.168,27.037,97.135c11.824,27.655,28.302,55.007,50.894,72.585c67.586,52.574,122.328,22.071,147.589-0.531
		c29.959,9.305,60.581,11.554,91.058,9.158c3.908,7.245,9.388,14.787,16.931,20.411c0,0-29.619,155.119,124.267,130.103h0.023
		C759.501,920.155,756.828,941.521,744.761,960.144z M732.881,326.069c-10.206-12.787-22.435-25.225-36.989-37.129
		c0,0-4.394,87.208-145.982,152.189c-141.564,64.982-258.182-82.767-258.182-82.767v-0.023c-26.551,8.974-51.59,11.764-51.59,11.764
		c3.836,46.708,9.23,124.662,58.239,198.943c0,0.023,0,0.047,0.023,0.07c24.295,36.78,59.262,72.654,110.038,103.412
		c45.871,27.783,89.788,42.383,130.591,48.475c23.528,3.534,46.033,4.231,67.26,2.976c13.833-0.79,27.132-2.418,39.803-4.627
		c46.917-8.091,85.557-24.016,112.735-35.153c0,0-29.596-77.583-5.603-116.502c1.906-3.092,3.976-6.952,6.068-11.508
		c3.394-7.3,6.905-16.391,9.997-26.876c5.65-19.018,10.02-42.639,10.09-68.562C779.495,418.6,768.313,370.382,732.881,326.069z
		 M659.762,546.564c9.369-15.228,4.534-35.13-10.834-44.429c-15.368-9.323-35.455-4.51-44.848,10.718
		c-9.393,15.228-4.534,35.13,10.834,44.429S650.369,561.792,659.762,546.564z M649.253,631.633
		c5.44-8.835-5.324-25.179-24.063-36.501c-18.739-11.346-38.315-13.392-43.755-4.58c-5.44,8.811,5.324,25.156,24.063,36.501
		C624.237,638.398,643.836,640.444,649.253,631.633z M500.97,555.794c5.301-0.465,6.952-7.393,2.395-10.137l-50.428-30.549
		c-4.348-2.627-9.672,1.465-8.184,6.277c0.79,3.464,13.461,30.689,17.739,32.921C466.515,556.422,496.413,556.515,500.97,555.794z
		 M371.937,463.704c5.44-8.811-5.347-25.156-24.063-36.501c-18.739-11.346-38.338-13.392-43.778-4.58
		c-5.417,8.835,5.347,25.179,24.086,36.501C346.921,470.469,366.497,472.515,371.937,463.704z M739.709,967.095
		c-5.771,7.13-13.097,13.783-22.196,19.832c-0.07,0.046-0.116,0.093-0.186,0.116l0.07,0.116
		c29.712,15.182,28.713,52.218,8.742,75.211c-12.485,14.368-32.084,22.343-51.172,20.808c-21.296-1.744-36.734-13.81-54.845-23.435
		c1.493,1.103,27.905,20.992,22.262,42.368c21.029,5.173,42.057,12.655,63.086,3.642c14.475-5.79,25.297-13.907,33.123-23.576
		c0.345-0.45,0.672-0.891,1.03-1.347c0.281-0.357,0.551-0.675,0.829-1.021C762.888,1049.481,757.299,1004.996,739.709,967.095z"/>
	<path fill="#CEAFA5" d="M769.289,529.313l151.073-49.66c-6.812-18.437-138.589-18.902-140.983-18.902
		c0.116-42.151-11.067-90.37-46.498-134.683c0,0,226.982,136.473,226.982,152.678c0,16.205-200.571,77.443-200.571,77.443
		C762.686,548.889,766.197,539.798,769.289,529.313z M705.47,1105.754c-21.029,9.012-42.057,1.531-63.086-3.642
		c-2.089,7.913-8.563,16.03-22.332,23.474v0.023c19.087,6.626,37.338,11.904,58.17,12.206c14.972,0.233,30.201-2.162,44.197-7.37
		v-0.023l-0.023-0.023c0,0-7.954-16.712,16.198-48.22C730.767,1091.846,719.945,1099.964,705.47,1105.754z M744.784,960.144h-0.023
		c-1.527,2.364-3.214,4.681-5.052,6.951c17.59,37.901,23.179,82.385,0.743,112.715c24.882-30.956,37.579-13.161,37.579-13.161h0.023
		C784.401,1030.008,767.871,988.159,744.784,960.144z M614.979,747.462c-6.561-12.161-8.69-23.483-8.69-23.483
		c-21.227,1.255-43.732,0.558-67.26-2.976c-0.292,1.447-5.628,8.819-15.109,17.301C553.88,747.608,584.501,749.857,614.979,747.462z
		 M756.2,897.976h-0.023c-14.395,2.34-27.182,3.102-38.54,2.564c1.296,20.576-3.772,41.281-13.851,58.857
		c8.671,15.591,13.589,27.199,13.718,27.506c1.765-1.413,21.212-17.403,27.258-26.76C756.828,941.521,759.501,920.155,756.2,897.976
		z"/>
	<path fill="#A37666" d="M756.2,897.976h-0.023c-15.644,2.543-29.363,3.198-41.438,2.37
		c-11.917-64.066-39.918-129.312-99.941-153.224c-6.417-12.031-8.509-23.143-8.509-23.143c13.833-0.79,27.132-2.418,39.803-4.627
		C646.092,719.352,743.738,814.279,756.2,897.976z M577.599,238.559c7.334-2.934,14.668-3.09,22.002-2.807
		c-0.35-0.114-0.705-0.244-1.055-0.355c-0.396-1.031-9.855-24.855-22.612-55.095C576.491,199.219,584.575,221.817,577.599,238.559z
		 M329.022,823.694c-9.536,67.714,1.785,135.674-14.138,205.338c-1.688,9.282-7.673,13.953-15.491,15.381c0,0,0,0,0,0
		c0.867,0.566,1.755,1.088,2.656,1.566c0.02,0.011,0.04,0.023,0.06,0.034c0.914,0.482,1.842,0.916,2.777,1.293
		c8.23,3.348,16.856,2.79,19.692-2.767c17.902-35.362,38.826-127.406,52.311-168.045c1.47-4.426,3.994-7.213,6.771-8.293
		c0.853-0.331,1.73-0.502,2.607-0.509C388.899,867.671,355.607,858.164,329.022,823.694z M469.228,893.211
		c-5.298-9.925-10.816-17.318-16.37-22.787c10.51,29.62,20.329,59.24,22.445,88.86c2.88,33.116-10.304,68.891-35.107,90.79
		c8.136,0.032,18.677-5.24,23.203-9.534c9.16-8.649,19.529-22.993,29.852-41.081c0.213,0.058,0.432,0.114,0.645,0.173
		C494.864,976.449,492.165,936.182,469.228,893.211z M717.513,986.927c0,0-4.94-11.728-13.728-27.53
		c-9.815,17.114-24.381,31.262-42.488,39.41c-15.554,7.777-32.074,13.618-49.078,17.302c0.154-0.003,0.31-0.003,0.463-0.006
		c37.4-0.858,74.12-8.854,104.645-29.061C717.397,987.02,717.443,986.974,717.513,986.927z"/>
	<path fill="#FF9663" d="M778.031,1066.649h0.023c-2.883,16.623-10.485,32.154-24.295,44.848
		c-9.067,8.347-19.785,14.601-31.34,18.925l-0.023-0.023c0,0-8.207-17.181,17.228-49.567
		C765.058,1048.421,778.031,1066.649,778.031,1066.649z M614.798,747.122c3.92,7.348,9.451,15.039,17.112,20.752
		c0,0-23.874,125.156,82.829,132.472C702.822,836.279,674.82,771.034,614.798,747.122z M581.435,590.551
		c-5.44,8.811,5.324,25.156,24.063,36.501c18.739,11.346,38.338,13.392,43.755,4.58c5.44-8.835-5.324-25.179-24.063-36.501
		C606.452,583.786,586.876,581.74,581.435,590.551z M660.367,263.993c-21.011-12.721-41.3-21.925-60.765-28.241
		c-7.334-0.284-14.668-0.127-22.002,2.807c6.976-16.742-1.108-39.339-1.664-58.257c-23.19-54.972-57.288-131.164-67.712-130.295
		c-15.321,1.256-117.85,211.196-130.126,236.444c-14.88,13.647-25.365,26.644-30.805,35.455
		c-10.834,17.576-33.711,29.085-55.566,36.431v0.023c0,0,116.618,147.749,258.183,82.767
		c141.588-64.982,145.982-152.189,145.982-152.189C685.313,280.291,673.502,271.944,660.367,263.993z M432.803,366.336
		c-15.391-9.323-35.455-4.51-44.848,10.718c-9.393,15.228-4.534,35.13,10.834,44.429c15.368,9.3,35.432,4.51,44.824-10.718
		C453.007,395.537,448.171,375.636,432.803,366.336z M564.557,227.213c0,0-44.731-110.248-58.542-107.551
		c-13.833,2.697-75.048,129.707-75.048,129.707C466.701,230.747,512.037,218.727,564.557,227.213z M304.096,422.622
		c-5.417,8.835,5.347,25.179,24.086,36.501c18.739,11.346,38.315,13.392,43.755,4.58c5.44-8.811-5.347-25.156-24.063-36.501
		C329.135,415.857,309.536,413.811,304.096,422.622z M460.588,1042.794c0.494-0.346,0.963-0.693,1.397-1.037
		C461.551,1042.101,461.082,1042.447,460.588,1042.794z M452.224,1047.321c-0.725,0.299-1.46,0.582-2.201,0.843
		C450.765,1047.902,451.499,1047.621,452.224,1047.321z M454.511,1046.306c-0.696,0.332-1.409,0.649-2.132,0.95
		C453.102,1046.954,453.815,1046.638,454.511,1046.306z M462.162,1041.611c0.446-0.361,0.867-0.72,1.237-1.072
		C463.029,1040.891,462.609,1041.25,462.162,1041.611z M493.251,999.458c0.738,0.202,1.494,0.398,2.237,0.599c0,0,0-0.001,0-0.001
		C494.745,999.856,493.988,999.66,493.251,999.458z M456.667,1045.209c0.636-0.345,1.247-0.699,1.837-1.057
		C457.914,1044.51,457.303,1044.864,456.667,1045.209z M458.738,1044.01c0.555-0.342,1.084-0.687,1.589-1.034
		C459.822,1043.323,459.293,1043.668,458.738,1044.01z M454.57,1046.277c0.709-0.339,1.401-0.692,2.071-1.054
		C455.972,1045.585,455.279,1045.937,454.57,1046.277z M267.429,695.956c-26.831,161.056,0.666,282.098,21.415,335.982
		c2.029,5.265,5.98,9.495,10.548,12.475c7.818-1.428,13.803-6.099,15.491-15.381c15.923-69.664,4.602-137.623,14.138-205.338
		c-4.534-6.323-8.873-12.803-13.03-19.419C315.438,804.396,271.92,710.957,267.429,695.956z M475.303,959.284
		c-2.116-29.62-11.935-59.24-22.445-88.86c-26.072-25.674-52.948-8.046-61.688-0.944c1.385,1.095,2.643,2.669,3.634,4.796
		c0.471,1.013,0.903,2.105,1.243,3.357c10.857,39.896,24.668,126.359,33.874,165.093c1.274,5.352,5.331,7.329,10.276,7.349
		C464.999,1028.174,478.182,992.399,475.303,959.284z M599.294,877.658c-0.015,0.003-0.028,0.007-0.043,0.01
		c-4.916,0.985-9.153,2.43-12.812,4.244c-45.873,22.749,1.435,105.015,1.435,105.015s-71.68-19.449-75.266,17.462
		c65.162,15.329,146.287,21.334,204.719-17.345c0.07-0.023,0.116-0.07,0.186-0.116C717.513,986.927,665.912,864.355,599.294,877.658
		z"/>
	<path fill="#323534" d="M920.362,479.653l-151.073,49.66c5.65-19.018,10.02-42.639,10.09-68.562
		C781.774,460.751,913.55,461.216,920.362,479.653z M604.08,512.853c-9.393,15.228-4.534,35.13,10.834,44.429
		s35.455,4.51,44.848-10.718c9.369-15.228,4.534-35.13-10.834-44.429C633.56,492.812,613.473,497.624,604.08,512.853z
		 M620.052,1059.697c-19.25-10.23-39.872-18.251-61.587-21.227c-28.132-3.859-63.005,1.232-84.534,21.296
		c-19.878,18.53-21.715,51.683-3.766,72.352c36.827,42.453,68.911-2.674,105.551-12.88c12.276-3.394,25.435-0.349,37.431,3.929
		c2.325,0.837,4.627,1.651,6.905,2.441v-0.023c50.962-27.55,2.116-64.331,0.07-65.842
		C620.076,1059.72,620.052,1059.697,620.052,1059.697z M506.015,119.662c-13.833,2.697-75.048,129.707-75.048,129.707
		c35.734-18.623,81.07-30.642,133.59-22.156C564.557,227.213,519.825,116.965,506.015,119.662z M452.937,515.108
		c-4.348-2.627-9.672,1.465-8.184,6.277c0.79,3.464,13.461,30.689,17.739,32.921c4.022,2.116,33.921,2.209,38.477,1.488
		c5.301-0.465,6.952-7.393,2.395-10.137L452.937,515.108z M408.438,672.528c-50.776-30.759-85.743-66.632-110.038-103.412
		c0.488,3.697,16.972,122.291,77.931,169.719c92.95,72.305,161.628-12.531,162.698-17.832
		C498.227,714.911,454.309,700.311,408.438,672.528z M387.956,377.054c-9.393,15.228-4.534,35.13,10.834,44.429
		s35.432,4.51,44.824-10.718c9.393-15.228,4.557-35.13-10.811-44.429C417.412,357.013,397.348,361.826,387.956,377.054z
		 M514.775,612.009c3.149-1.587,4.415-5.426,2.828-8.573c-1.587-3.154-5.427-4.421-8.574-2.829
		c-0.151,0.079-15.34,7.481-34.613-4.298c-17.133-10.467-12.056-25.133-11.441-26.721c1.184-2.898,0.09-6.229-2.583-7.861
		c-2.675-1.634-6.136-1.089-8.174,1.29c-0.454,0.529-11.309,12.818-28.999,2.01c-18.93-11.567-19.595-28.09-19.615-28.884
		c-0.049-3.49-2.893-6.295-6.382-6.295c-0.015,0-0.031,0-0.045,0c-3.526,0.025-6.365,2.903-6.34,6.429
		c0.007,0.982,0.459,24.207,25.726,39.646c12.805,7.824,24.222,7.295,32.689,4.037c0.963,9.02,5.699,19.421,18.507,27.245
		c10.79,6.596,20.777,8.514,28.749,8.512C507.203,615.717,514.273,612.264,514.775,612.009z M323.418,763.14
		c23.352-1.776,5.933-85.08-16.73-59.33C289.959,722.817,300.065,764.917,323.418,763.14z"/>
</g>
</svg>
