<?xml version="1.0" encoding="utf-8"?>
<!-- Designed by Vexels.com - 2021 All Rights Reserved - https://vexels.com/terms-and-conditions/  -->
<svg version="1.1" id="Capa_1" xmlns="http://www.w3.org/2000/svg" xmlns:xlink="http://www.w3.org/1999/xlink" x="0px" y="0px"
	 viewBox="0 0 1200 1200" enable-background="new 0 0 1200 1200" xml:space="preserve">
<g>
	<path fill="#F2E4CC" d="M1135.766,935.567c0.162,0.134,0.27,0.27,0.35,0.377c-1.51,1.187-5.365,3.613-14.8,7.252l-0.378,0.134
		c-22.295,8.6-48.93,10.299-70.336,11.646c-47.313,2.993-95.435,1.132-136.277-1.051c-12.94-0.702-26.15-1.187-38.956-1.645
		c-35.721-1.267-72.681-2.588-108.079-8.978c-23.751-4.313-42.541-9.705-59.175-16.957c-20.138-8.789-46.962-19.087-65.78-25.288
		c5.176-14.315,8.95-28.954,11.754-40.25c37.203,19.68,75.755,39.36,117.784,49.712c36.556,8.978,76.86,15.124,119.752,18.251
		c38.821,2.831,61.278,3.558,98.508,4.772l3.343,0.108c13.668,0.458,40.978-0.594,59.013-1.294l8.276-0.324
		c5.931-0.216,11.916-0.701,17.712-1.186c9.517-0.809,18.494-1.564,27.471-1.186c0.135,0,0.27,0,0.431,0
		C1115.897,929.474,1131.264,931.145,1135.766,935.567z M160.93,454.052c-22.619,0-80.23-34.804-80.23-78.477v-1.699
		c0-0.593-0.081-1.186-0.216-1.725c-22.915-86.458-17.092-118.943-13.992-128.244c11.458,3.828,34.588,29.628,51.357,54.565
		l2.022,2.966c1.833,2.723,5.419,3.72,8.438,2.318c9.948-4.664,19.707-6.659,32.62-6.659c12.428,0,21.972,0.324,31.839,4.772
		c1.995,0.917,4.34,0.782,6.228-0.35l1.752-1.052c0.836-0.512,1.564-1.186,2.103-2.022c16.795-24.964,40.007-50.818,51.438-54.565
		c3.37,9.436,10.19,42.73-12.913,129.969c-0.162,0.567-0.243,1.133-0.243,1.726c0,9.436-2.696,18.466-7.144,26.824
		c-0.216,0.324-0.431,0.701-0.593,1.078C216.923,433.186,178.426,454.052,160.93,454.052z M183.791,376.734
		c1.159,0.836,2.507,1.213,3.855,1.213c2.13,0,4.206-0.997,5.527-2.857c7.683-10.972,22.834-8.6,23.535-8.492
		c3.666,0.647,7.144-1.806,7.791-5.473c0.647-3.666-1.806-7.144-5.473-7.791c-0.97-0.189-24.209-4.071-36.907,14.019
		C179.99,370.399,180.744,374.604,183.791,376.734z M141.303,364.899c-12.644-18.305-36.071-14.396-37.042-14.234
		c-3.666,0.647-6.093,4.124-5.446,7.791c0.62,3.64,4.125,6.093,7.764,5.5c0.647-0.108,15.96-2.534,23.616,8.6
		c1.321,1.887,3.424,2.912,5.554,2.912c1.321,0,2.669-0.405,3.828-1.213C142.651,372.151,143.406,367.946,141.303,364.899z
		 M161.28,432.431l9.786-10.137c1.456-1.51,0.377-4.017-1.698-4.017H149.58c-2.426,0-3.666,2.912-1.968,4.665l9.139,9.489
		C157.991,433.726,160.04,433.726,161.28,432.431z M628.29,702.399c-4.233-13.479-10.056-27.337-17.793-42.353
		c-22.726-43.997-57.072-84.139-99.344-116.112c-53.567-40.519-120.776-69.311-199.712-85.541
		c-20.192-2.804-36.853-11.458-49.497-20.677c-6.767,10.864-24.29,32.755-40.735,43.754c-28.9,19.302-79.044,25.988-107,4.178
		c-2.48-1.968-4.745-4.178-6.74-6.578c0.944,39.198,12.482,81.147,38.767,112.5c0.243,0.243,0.458,0.486,0.674,0.782
		c4.152,4.88,8.627,9.49,13.533,13.803c7.225,6.335,15.097,12.401,22.699,18.224c9.624,7.414,19.599,15.07,28.711,23.671
		c34.885,32.836,54.915,77.21,59.552,131.856c0.027,0.189,0.027,0.377,0.027,0.566v159.193h37.23
		c2.399-20.192,10.972-88.453,25.476-160.514c1.078-5.311,2.184-10.649,3.262-15.987c14.073-68.664,28.63-139.647-3.181-184.372
		c-2.157-3.019-1.456-7.225,1.591-9.382c3.019-2.157,7.225-1.456,9.409,1.591c35.208,49.469,20.057,123.391,5.392,194.859
		c-0.943,4.611-1.887,9.22-2.804,13.803c2.831,5.985,12.779,25.719,29.79,46.936c-10.703-32.917-9.813-71.334,10.595-100.665
		c33.052-47.502,91.607-53.136,135.388-42.595c3.612,0.89,5.85,4.529,4.96,8.142c-0.863,3.612-4.502,5.823-8.115,4.988
		c-39.441-9.544-91.984-4.745-121.18,37.177c-10.352,14.881-14.801,32.836-14.801,51.033c0,27.714,10.325,56.021,25.773,74.972
		c0.027,0.028,0.027,0.028,0.027,0.028c13.83,16.93,32.539,30.436,52.867,38.309c23.265-7.091,46.181-9.894,51.276-10.46
		c3.72-0.377,7.036,2.265,7.441,5.958c0.404,3.694-2.265,7.037-5.958,7.441c-23.454,2.588-86.511,14.962-93.655,38.74h174.236
		c24.344,0,40.25-64.648,45.48-85.892l1.132-4.61C655.276,800.691,643.172,749.981,628.29,702.399z"/>
	<path fill="#D1C2AE" d="M257.955,780.768v158.896h-33.348V791.956c0-0.108,0-0.216-0.027-0.324
		c-2.022-42.73-37.176-119.509-59.391-164.099c3.262,2.561,6.524,5.068,9.732,7.549c9.382,7.198,19.06,14.639,27.687,22.78
		C234.932,688.299,253.561,729.654,257.955,780.768z M114.21,485.648c27.956,21.81,78.1,15.124,107-4.178
		c16.445-10.999,33.968-32.89,40.735-43.754c-9.678-7.091-17.011-14.531-21.729-19.896c-20.273,29.386-57.18,49.712-79.286,49.712
		c-13.749,0-33.213-7.845-50.845-20.839l-0.89-0.404c-1.375,10.487-1.995,21.513-1.725,32.782
		C109.465,481.47,111.73,483.68,114.21,485.648z"/>
	<path d="M182.119,367.353c12.698-18.089,35.936-14.207,36.907-14.019c3.666,0.647,6.12,4.125,5.473,7.791
		c-0.647,3.667-4.125,6.12-7.791,5.473c-0.701-0.108-15.852-2.48-23.535,8.492c-1.321,1.86-3.397,2.857-5.527,2.857
		c-1.348,0-2.696-0.377-3.855-1.213C180.744,374.604,179.99,370.399,182.119,367.353z M171.066,422.295
		c1.456-1.51,0.377-4.017-1.698-4.017H149.58c-2.426,0-3.666,2.912-1.968,4.665l9.139,9.489c1.24,1.295,3.289,1.295,4.529,0
		L171.066,422.295z M1150,937.023c0,6.902-6.686,12.158-23.859,18.736l-0.35,0.135c-24.236,9.355-52.004,11.134-74.326,12.536
		c-18.009,1.132-36.098,1.591-53.837,1.591c-29.601,0-58.258-1.267-84.031-2.643c-12.805-0.7-25.988-1.159-38.713-1.617
		c-36.206-1.294-73.625-2.615-109.993-9.193c-24.802-4.503-44.563-10.164-62.167-17.847c-20.084-8.789-46.882-19.06-65.349-25.125
		c-9.436,21.567-22.565,39.549-40.924,39.549H414.937c-3.451,0-6.335-2.616-6.713-6.039c-2.022-19.869,15.34-33.43,36.637-42.541
		c-17.011-8.789-32.459-21.109-44.59-35.802c-27.768-22.538-46.477-50.279-56.614-67.99c-14.666,77.48-22.214,145.632-22.295,146.36
		c-0.35,3.424-3.262,6.012-6.686,6.012h-49.982h-46.828c-3.72,0-6.74-3.02-6.74-6.74V792.118
		c-2.804-56.183-69.554-181.407-75.216-191.921c-38.578-46.1-47.744-112.85-38.74-164.342
		c-17.038-16.202-29.951-37.338-29.951-60.28v-0.836C37.269,261.161,55.035,235.092,57.165,232.504
		c1.105-1.321,2.669-2.184,4.367-2.4c22.025-2.776,55.023,42.514,66.373,59.148c10.056-3.937,20.246-5.635,33.025-5.635
		c11.997,0,22.268,0.324,32.89,4.152c12.212-17.685,44.051-60.388,65.348-57.666c1.725,0.216,3.289,1.079,4.394,2.427
		c2.238,2.777,21.001,30.356-8.95,143.934c-0.135,10.11-2.804,19.842-7.171,28.955c7.252,8.95,31.003,34.885,66.049,39.657
		c0.162,0.026,0.297,0.054,0.458,0.08c81.012,16.634,150.107,46.235,205.346,88.048c43.862,33.159,79.529,74.892,103.172,120.668
		c8.115,15.69,14.207,30.248,18.683,44.509c14.962,47.798,27.094,98.804,16.148,148.867c37.446,19.842,76.186,39.926,117.811,50.171
		c35.801,8.815,75.35,14.854,117.487,17.927c38.551,2.804,59.66,3.478,97.969,4.745l3.343,0.107c13.21,0.432,40.196-0.62,58.07-1.32
		l8.303-0.297c5.608-0.216,11.431-0.701,17.065-1.186c9.436-0.782,19.195-1.591,28.954-1.213c5.23-0.135,28.9-0.028,38.902,9.732
		C1148.356,928.989,1150,932.844,1150,937.023z M160.93,454.052c17.496,0,55.994-20.866,72.466-50.575
		c0.162-0.377,0.377-0.754,0.593-1.078c4.448-8.358,7.144-17.388,7.144-26.824c0-0.593,0.081-1.159,0.243-1.726
		c23.104-87.239,16.283-120.533,12.913-129.969c-11.431,3.747-34.642,29.601-51.438,54.565c-0.539,0.836-1.267,1.51-2.103,2.022
		l-1.752,1.052c-1.887,1.132-4.233,1.267-6.228,0.35c-9.867-4.448-19.41-4.772-31.839-4.772c-12.913,0-22.672,1.995-32.62,6.659
		c-3.02,1.402-6.605,0.405-8.438-2.318l-2.022-2.966c-16.769-24.937-39.899-50.737-51.357-54.565
		c-3.1,9.301-8.923,41.786,13.992,128.244c0.135,0.539,0.216,1.132,0.216,1.725v1.699C80.7,419.249,138.311,454.052,160.93,454.052z
		 M257.955,780.768c-4.394-51.115-23.023-92.469-55.347-122.906c-8.627-8.142-18.305-15.582-27.687-22.78
		c-3.208-2.481-6.47-4.988-9.732-7.549c22.214,44.59,57.369,121.369,59.391,164.099c0.027,0.108,0.027,0.216,0.027,0.324v147.708
		h33.348V780.768z M641.931,853.773l1.132-4.61c12.212-48.472,0.108-99.182-14.774-146.764
		c-4.233-13.479-10.056-27.337-17.793-42.353c-22.726-43.997-57.072-84.139-99.344-116.112
		c-53.567-40.519-120.776-69.311-199.712-85.541c-20.192-2.804-36.853-11.458-49.497-20.677
		c-9.678-7.091-17.011-14.531-21.729-19.896c-20.273,29.386-57.18,49.712-79.286,49.712c-13.749,0-33.213-7.845-50.845-20.839
		c-0.297-0.215-0.566-0.431-0.863-0.647c0,0.081-0.027,0.162-0.027,0.243c-1.375,10.487-1.995,21.513-1.725,32.782
		c0.944,39.198,12.482,81.147,38.767,112.5c0.243,0.243,0.458,0.486,0.674,0.782c4.152,4.88,8.627,9.49,13.533,13.803
		c7.225,6.335,15.097,12.401,22.699,18.224c9.624,7.414,19.599,15.07,28.711,23.671c34.885,32.836,54.915,77.21,59.552,131.856
		c0.027,0.189,0.027,0.377,0.027,0.566v159.193h37.23c2.399-20.192,10.972-88.453,25.476-160.514
		c1.078-5.311,2.184-10.649,3.262-15.987c14.073-68.664,28.63-139.647-3.181-184.372c-2.157-3.019-1.456-7.225,1.591-9.382
		c3.019-2.157,7.225-1.456,9.409,1.591c35.208,49.469,20.057,123.391,5.392,194.859c-0.943,4.611-1.887,9.22-2.804,13.803
		c2.831,5.985,12.779,25.719,29.79,46.936c-10.703-32.917-9.813-71.334,10.595-100.665c33.052-47.502,91.607-53.136,135.388-42.595
		c3.612,0.89,5.85,4.529,4.96,8.142c-0.863,3.612-4.502,5.823-8.115,4.988c-39.441-9.544-91.984-4.745-121.18,37.177
		c-10.352,14.881-14.801,32.836-14.801,51.033c0,27.714,10.325,56.021,25.773,74.972c0.027,0.028,0.027,0.028,0.027,0.028
		c13.83,16.93,32.539,30.436,52.867,38.309c23.265-7.091,46.181-9.894,51.276-10.46c3.72-0.377,7.036,2.265,7.441,5.958
		c0.404,3.694-2.265,7.037-5.958,7.441c-23.454,2.588-86.511,14.962-93.655,38.74h174.236
		C620.796,939.664,636.701,875.017,641.931,853.773z M1136.116,935.944c-0.081-0.107-0.189-0.243-0.35-0.377
		c-4.502-4.422-19.869-6.093-29.385-5.904c-0.162,0-0.297,0-0.431,0c-8.977-0.378-17.955,0.377-27.471,1.186
		c-5.796,0.485-11.781,0.97-17.712,1.186l-8.276,0.324c-18.036,0.7-45.345,1.752-59.013,1.294l-3.343-0.108
		c-37.23-1.214-59.687-1.941-98.508-4.772c-42.892-3.128-83.195-9.274-119.752-18.251c-42.029-10.352-80.58-30.033-117.784-49.712
		c-2.804,11.296-6.578,25.934-11.754,40.25c18.817,6.201,45.641,16.499,65.78,25.288c16.634,7.252,35.424,12.644,59.175,16.957
		c35.397,6.39,72.358,7.711,108.079,8.978c12.805,0.458,26.015,0.943,38.956,1.645c40.843,2.183,88.965,4.044,136.277,1.051
		c21.405-1.348,48.041-3.047,70.336-11.646l0.378-0.134C1130.751,939.557,1134.606,937.13,1136.116,935.944z M104.262,350.665
		c-3.666,0.647-6.093,4.124-5.446,7.791c0.62,3.64,4.125,6.093,7.764,5.5c0.647-0.108,15.96-2.534,23.616,8.6
		c1.321,1.887,3.424,2.912,5.554,2.912c1.321,0,2.669-0.405,3.828-1.213c3.073-2.103,3.828-6.309,1.725-9.355
		C128.66,346.594,105.232,350.503,104.262,350.665z"/>
</g>
</svg>
